nColumns=19
nRows=106
DataType=double
version=3
OpenSimVersion=4.1
endheader
time	ground_force_calcn_r_vx	ground_force_calcn_r_vy	ground_force_calcn_r_vz	ground_force_calcn_r_px	ground_force_calcn_r_py	ground_force_calcn_r_pz	ground_force_calcn_r_mx	ground_force_calcn_r_my	ground_force_calcn_r_mz	ground_force_calcn_l_vx	ground_force_calcn_l_vy	ground_force_calcn_l_vz	ground_force_calcn_l_px	ground_force_calcn_l_py	ground_force_calcn_l_pz	ground_force_calcn_l_mx	ground_force_calcn_l_my	ground_force_calcn_l_mz
1.87	0	0	0	0	0	0	0	0	0	-131.579	1142.71	-21.1266	1.28231	0	-0.403831	0.471103	-4.09133	0.0756409
1.88	0	0	0	0	0	0	0	0	0	-177.102	1347.33	-30.9139	1.26469	0	-0.405678	0.475615	-3.61833	0.0830206
1.89	0	0	0	0	0	0	0	0	0	-226.842	1428.62	-40.0479	1.24154	0	-0.409284	0.435599	-2.74335	0.076903
1.9	0	0	0	0	0	0	0	0	0	-257.551	1550.09	-41.0667	1.2129	0	-0.411775	0.259997	-1.56481	0.0414567
1.91	0	0	0	0	0	0	0	0	0	-237.328	1720.49	-38.7913	1.1819	0	-0.412999	0.00224339	-0.0162633	0.000366682
1.92	0	0	0	0	0	0	0	0	0	-183.329	1862.37	-39.4169	1.14855	0	-0.413859	-0.200075	2.03249	-0.0430173
1.93	0	0	0	0	0	0	0	0	0	-117.422	1936.95	-42.7795	1.11245	0	-0.414312	-0.276918	4.56796	-0.100888
1.94	0	0	0	0	0	0	0	0	0	-45.7842	1947.82	-47.2959	1.07514	0	-0.414366	-0.17374	7.39152	-0.179476
1.95	0	0	0	0	0	0	0	0	0	27.3008	1899.61	-52.4796	1.03795	0	-0.41386	0.145976	10.1571	-0.280605
1.96	0	0	0	0	0	0	0	0	0	100.917	1792.68	-58.0917	1.00144	0	-0.412584	0.701163	12.4554	-0.403616
1.97	0	0	0	0	0	0	0	0	0	173.112	1628.19	-63.2119	0.964086	0	-0.410406	1.47787	13.8999	-0.539644
1.98	0	0	0	0	0	0	0	0	0	231.539	1412.41	-67.4588	0.925209	0	-0.407912	2.33152	14.2225	-0.679287
1.99	0	0	0	0	0	0	0	0	0	263.152	1160.96	-69.7671	0.885338	0	-0.405708	3.02705	13.3546	-0.802536
2	0	0	0	0	0	0	0	0	0	263.743	895.588	-68.0246	0.844986	0	-0.403856	3.36927	11.441	-0.869001
2.01	0	0	0	0	0	0	0	0	0	237.472	639.975	-61.6924	0.806023	0	-0.402999	3.26595	8.80159	-0.848458
2.02	0	0	0	0	0	0	0	0	0	189.022	417.786	-51.4414	0.772925	0	-0.403476	2.68335	5.93086	-0.730258
2.03	0	0	0	0	0	0	0	0	0	129.828	244.072	-38.5216	0.748306	0	-0.403288	1.76604	3.32008	-0.524003
2.04	0	0	0	0	0	0	0	0	0	74.7764	122.683	-25.7992	0.726612	0	-0.399931	0.784927	1.2878	-0.270814
2.05	0	0	0	0	0	0	0	0	0	32.6975	50.3295	-15.6617	0.688454	0	-0.398003	-0.00973281	-0.0149812	0.00466189
2.06	0	0	0	0	0	0	0	0	0	9.08649	16.7392	-7.98644	0.617505	0	-0.392436	-0.377051	-0.694607	0.331403
2.07	0	0	0	0	0	0	0	0	0	0	0	0	0	0	0	0	0	0
2.08	0	0	0	0	0	0	0	0	0	0	0	0	0	0	0	0	0	0
2.09	0	0	0	0	0	0	0	0	0	0	0	0	0	0	0	0	0	0
2.1	0	0	0	0	0	0	0	0	0	0	0	0	0	0	0	0	0	0
2.11	0	0	0	0	0	0	0	0	0	0	0	0	0	0	0	0	0	0
2.12	0	0	0	0	0	0	0	0	0	0	0	0	0	0	0	0	0	0
2.13	-3.91226	10.9884	-5.22896	1.37523	0	-0.601022	-0.976748	2.74339	-1.30548	0	0	0	0	0	0	0	0	0
2.14	-12.8575	51.3729	-7.81972	1.34789	0	-0.458907	-0.826673	3.30302	-0.502768	0	0	0	0	0	0	0	0	0
2.15	-34.4949	184.841	-7.13677	1.33833	0	-0.437982	-0.444258	2.38055	-0.0919142	0	0	0	0	0	0	0	0	0
2.16	-62.297	480.954	3.31318	1.32602	0	-0.432445	-0.0422497	0.326182	0.00224699	0	0	0	0	0	0	0	0	0
2.17	-89.7473	899.255	23.9428	1.31081	0	-0.428364	0.242499	-2.42981	-0.0646939	0	0	0	0	0	0	0	0	0
2.18	-132.819	1253.1	41.3005	1.29686	0	-0.427505	0.549067	-5.18026	-0.170734	0	0	0	0	0	0	0	0	0
2.19	-192.559	1428.94	44.2698	1.28211	0	-0.428536	0.98221	-7.28876	-0.225812	0	0	0	0	0	0	0	0	0
2.2	-244.916	1523.89	36.9758	1.26032	0	-0.428503	1.37128	-8.53224	-0.207028	0	0	0	0	0	0	0	0	0
2.21	-270.318	1664.26	27.6795	1.23203	0	-0.427742	1.48544	-9.14536	-0.152103	0	0	0	0	0	0	0	0	0
2.22	-250.132	1836.98	22.1645	1.19953	0	-0.427264	1.29683	-9.524	-0.114914	0	0	0	0	0	0	0	0	0
2.23	-199.112	1969.27	22.027	1.1653	0	-0.427388	1.00587	-9.94838	-0.111276	0	0	0	0	0	0	0	0	0
2.24	-130.566	2025.66	25.2994	1.13084	0	-0.42763	0.680971	-10.5649	-0.13195	0	0	0	0	0	0	0	0	0
2.25	-56.2335	2008.64	30.0396	1.09621	0	-0.427906	0.317194	-11.3301	-0.169443	0	0	0	0	0	0	0	0	0
2.26	19.4797	1928.24	36.1724	1.06069	0	-0.428525	-0.121573	-12.0342	-0.225753	0	0	0	0	0	0	0	0	0
2.27	95.3782	1788.98	44.0972	1.02342	0	-0.42963	-0.658384	-12.3491	-0.304397	0	0	0	0	0	0	0	0	0
2.28	167.545	1591.46	52.2866	0.985021	0	-0.431448	-1.25314	-11.9032	-0.391075	0	0	0	0	0	0	0	0	0
2.29	222.182	1343.18	57.9917	0.947418	0	-0.433472	-1.72454	-10.4255	-0.450122	0	0	0	0	0	0	0	0	0
2.3	245.951	1062.81	58.0526	0.911811	0	-0.435116	-1.8324	-7.91825	-0.432508	0	0	0	0	0	0	0	0	0
2.31	237.294	775.4	50.5289	0.87702	0	-0.436177	-1.44602	-4.72513	-0.307913	0	0	0	0	0	0	0	0	0
2.32	204.69	511.329	37.2535	0.841411	0	-0.436334	-0.589849	-1.47348	-0.107352	0	0	0	0	0	0	0	0	0
2.33	154.56	298.544	23.7758	0.803928	0	-0.433833	0.56846	1.09802	0.0874458	0	0	0	0	0	0	0	0	0
2.34	95.8898	150.293	14.0023	0.762477	0	-0.4238	1.63914	2.56912	0.239356	0	0	0	0	0	0	0	0	0
2.35	45.5317	62.9235	7.09201	0.721289	0	-0.395831	2.24799	3.10666	0.350147	0	0	0	0	0	0	0	0	0
2.36	17.2722	21.8525	1.7896	0.743542	0	-0.311552	2.37969	3.01074	0.246564	0	0	0	0	0	0	0	0	0
2.37	0	0	0	0	0	0	0	0	0	0	0	0	0	0	0	0	0	0
2.38	0	0	0	0	0	0	0	0	0	0	0	0	0	0	0	0	0	0
2.39	0	0	0	0	0	0	0	0	0	0	0	0	0	0	0	0	0	0
2.4	0	0	0	0	0	0	0	0	0	0	0	0	0	0	0	0	0	0
2.41	0	0	0	0	0	0	0	0	0	0	0	0	0	0	0	0	0	0
2.42	0	0	0	0	0	0	0	0	0	0	0	0	0	0	0	0	0	0
2.43	0	0	0	0	0	0	0	0	0	0	0	0	0	0	0	0	0	0
2.44	0	0	0	0	0	0	0	0	0	0	0	0	0	0	0	0	0	0
2.45	0	0	0	0	0	0	0	0	0	-16.4072	33.3188	-6.22851	1.26632	0	-0.433879	0.516684	-1.04925	0.196144
2.46	0	0	0	0	0	0	0	0	0	-47.583	123.203	-5.74571	1.33383	0	-0.44927	1.23841	-3.2065	0.149539
2.47	0	0	0	0	0	0	0	0	0	-96.6928	360.355	-0.583675	1.34396	0	-0.450367	1.55162	-5.78256	0.00936615
2.48	0	0	0	0	0	0	0	0	0	-146.15	777.201	9.37761	1.334	0	-0.445165	1.49937	-7.97334	-0.0962054
2.49	0	0	0	0	0	0	0	0	0	-187.838	1205.92	14.7124	1.31929	0	-0.442059	1.40666	-9.03074	-0.110177
2.5	0	0	0	0	0	0	0	0	0	-224.5	1428.71	7.63582	1.30288	0	-0.443047	1.35315	-8.61138	-0.046024
2.51	0	0	0	0	0	0	0	0	0	-257.955	1521.15	-3.37777	1.28017	0	-0.445034	1.15359	-6.80271	0.0151057
2.52	0	0	0	0	0	0	0	0	0	-269.932	1652.66	-9.32564	1.25143	0	-0.445264	0.648048	-3.96768	0.0223889
2.53	0	0	0	0	0	0	0	0	0	-239.346	1813.01	-13.4504	1.22132	0	-0.444647	0.05864	-0.444188	0.00329535
2.54	0	0	0	0	0	0	0	0	0	-191.146	1920.26	-18.976	1.18972	0	-0.444032	-0.339656	3.41219	-0.0337194
2.55	0	0	0	0	0	0	0	0	0	-133.666	1950.58	-24.3912	1.15514	0	-0.443486	-0.491169	7.16761	-0.089628
2.56	0	0	0	0	0	0	0	0	0	-64.0596	1920.43	-28.1275	1.11817	0	-0.442952	-0.347506	10.4178	-0.152584
2.57	0	0	0	0	0	0	0	0	0	12.9533	1842.11	-30.7305	1.08077	0	-0.441989	0.0902156	12.8297	-0.214028
2.58	0	0	0	0	0	0	0	0	0	89.8192	1713.34	-32.728	1.0436	0	-0.44038	0.743929	14.1908	-0.271071
2.59	0	0	0	0	0	0	0	0	0	157.307	1530.58	-33.4614	1.00575	0	-0.438281	1.48504	14.4492	-0.315887
2.6	0	0	0	0	0	0	0	0	0	203.46	1302.47	-32.9272	0.96682	0	-0.436109	2.14426	13.7266	-0.347019
2.61	0	0	0	0	0	0	0	0	0	222.062	1046.19	-32.1069	0.926665	0	-0.434341	2.60316	12.2641	-0.376379
2.62	0	0	0	0	0	0	0	0	0	215.728	784.703	-31.9852	0.886532	0	-0.433714	2.83546	10.3139	-0.420403
2.63	0	0	0	0	0	0	0	0	0	191.182	545.205	-31.5386	0.848874	0	-0.433973	2.83737	8.09151	-0.468072
2.64	0	0	0	0	0	0	0	0	0	152.477	348.12	-28.535	0.816128	0	-0.433224	2.55915	5.84279	-0.478927
2.65	0	0	0	0	0	0	0	0	0	105.531	199.542	-23.2331	0.789678	0	-0.428807	2.02202	3.82332	-0.445158
2.66	0	0	0	0	0	0	0	0	0	59.6585	97.2672	-17.8222	0.764765	0	-0.421372	1.35433	2.20809	-0.404587
2.67	0	0	0	0	0	0	0	0	0	24.1989	37.821	-12.3486	0.736057	0	-0.413194	0.703825	1.10002	-0.359158
2.68	0	0	0	0	0	0	0	0	0	5.81318	12.5838	-6.2735	0.776328	0	-0.355872	0.22889	0.495479	-0.247015
2.69	0	0	0	0	0	0	0	0	0	0	0	0	0	0	0	0	0	0
2.7	0	0	0	0	0	0	0	0	0	0	0	0	0	0	0	0	0	0
2.71	0	0	0	0	0	0	0	0	0	0	0	0	0	0	0	0	0	0
2.72	0	0	0	0	0	0	0	0	0	0	0	0	0	0	0	0	0	0
2.73	0	0	0	0	0	0	0	0	0	0	0	0	0	0	0	0	0	0
2.74	0	0	0	0	0	0	0	0	0	0	0	0	0	0	0	0	0	0
2.75	0	0	0	0	0	0	0	0	0	0	0	0	0	0	0	0	0	0
2.76	-3.63242	16.0418	-6.13126	1.36722	0	-0.418761	-0.629032	2.77799	-1.06176	0	0	0	0	0	0	0	0	0
2.77	-15.0033	64.9869	-9.66237	1.32456	0	-0.450752	-0.616205	2.6691	-0.396846	0	0	0	0	0	0	0	0	0
2.78	-36.6701	212.889	-9.60283	1.31732	0	-0.455807	-0.296051	1.71873	-0.0775271	0	0	0	0	0	0	0	0	0
2.79	-57.1982	516.103	1.14183	1.31226	0	-0.449619	-0.0130347	0.117613	0.000260208	0	0	0	0	0	0	0	0	0
2.8	-71.5682	902.613	19.2968	1.30142	0	-0.444029	0.136988	-1.72768	-0.0369358	0	0	0	0	0	0	0	0	0
2.81	-98.4495	1185.7	30.3624	1.28786	0	-0.442811	0.274161	-3.30194	-0.0845529	0	0	0	0	0	0	0	0	0
2.82	-140.858	1302.42	27.6973	1.27075	0	-0.44299	0.46473	-4.29705	-0.0913813	0	0	0	0	0	0	0	0	0
2.83	-185.529	1386.32	18.2054	1.24614	0	-0.441894	0.642868	-4.80366	-0.0630828	0	0	0	0	0	0	0	0	0
2.84	-209.632	1542.2	10.7638	1.21674	0	-0.440717	0.712955	-5.24501	-0.0366075	0	0	0	0	0	0	0	0	0
2.85	-189.545	1732.61	10.9227	1.18411	0	-0.440026	0.664267	-6.072	-0.0382788	0	0	0	0	0	0	0	0	0
2.86	-141.889	1885.46	18.2627	1.14872	0	-0.4398	0.563861	-7.49274	-0.0725752	0	0	0	0	0	0	0	0	0
2.87	-79.823	1966.99	28.5245	1.11146	0	-0.439707	0.382594	-9.42785	-0.136719	0	0	0	0	0	0	0	0	0
2.88	-13.6958	1969.96	38.886	1.0739	0	-0.439711	0.0802467	-11.5425	-0.227842	0	0	0	0	0	0	0	0	0
2.89	52.5351	1893.29	49.1695	1.03631	0	-0.44018	-0.370552	-13.3541	-0.346813	0	0	0	0	0	0	0	0	0
2.9	119.71	1746.75	59.2306	0.998889	0	-0.441354	-0.982421	-14.335	-0.486087	0	0	0	0	0	0	0	0	0
2.91	186.337	1543.68	67.4525	0.962257	0	-0.44293	-1.69191	-14.0163	-0.612456	0	0	0	0	0	0	0	0	0
2.92	237.48	1294.3	71.1173	0.926397	0	-0.444295	-2.23215	-12.1656	-0.668456	0	0	0	0	0	0	0	0	0
